<svg width="426" height="220" viewBox="0 0 426 220" fill="none" xmlns="http://www.w3.org/2000/svg">
<path d="M8.45455 104V34.1818H50.5909V41.6818H16.9091V65.2727H48.4091V72.7727H16.9091V96.5H51.1364V104H8.45455ZM64.7386 104V51.6364H72.7841V104H64.7386ZM68.8295 42.9091C67.2614 42.9091 65.9091 42.375 64.7727 41.3068C63.6591 40.2386 63.1023 38.9545 63.1023 37.4545C63.1023 35.9545 63.6591 34.6705 64.7727 33.6023C65.9091 32.5341 67.2614 32 68.8295 32C70.3977 32 71.7386 32.5341 72.8523 33.6023C73.9886 34.6705 74.5568 35.9545 74.5568 37.4545C74.5568 38.9545 73.9886 40.2386 72.8523 41.3068C71.7386 42.375 70.3977 42.9091 68.8295 42.9091ZM108.656 124.727C104.77 124.727 101.429 124.227 98.6335 123.227C95.8381 122.25 93.5085 120.955 91.6449 119.341C89.804 117.75 88.3381 116.045 87.2472 114.227L93.6562 109.727C94.3835 110.682 95.304 111.773 96.4176 113C97.5313 114.25 99.054 115.33 100.986 116.239C102.94 117.17 105.497 117.636 108.656 117.636C112.884 117.636 116.372 116.614 119.122 114.568C121.872 112.523 123.247 109.318 123.247 104.955V94.3182H122.565C121.974 95.2727 121.134 96.4545 120.043 97.8636C118.974 99.25 117.429 100.489 115.406 101.58C113.406 102.648 110.702 103.182 107.293 103.182C103.065 103.182 99.2699 102.182 95.9062 100.182C92.5653 98.1818 89.9176 95.2727 87.9631 91.4545C86.0313 87.6364 85.0653 83 85.0653 77.5455C85.0653 72.1818 86.0085 67.5114 87.8949 63.5341C89.7813 59.5341 92.4063 56.4432 95.7699 54.2614C99.1335 52.0568 103.02 50.9545 107.429 50.9545C110.838 50.9545 113.543 51.5227 115.543 52.6591C117.565 53.7727 119.111 55.0455 120.179 56.4773C121.27 57.8864 122.111 59.0455 122.702 59.9545H123.52V51.6364H131.293V105.5C131.293 110 130.27 113.659 128.224 116.477C126.202 119.318 123.474 121.398 120.043 122.716C116.634 124.057 112.838 124.727 108.656 124.727ZM108.384 95.9545C111.611 95.9545 114.338 95.2159 116.565 93.7386C118.793 92.2614 120.486 90.1364 121.645 87.3636C122.804 84.5909 123.384 81.2727 123.384 77.4091C123.384 73.6364 122.815 70.3068 121.679 67.4205C120.543 64.5341 118.861 62.2727 116.634 60.6364C114.406 59 111.656 58.1818 108.384 58.1818C104.974 58.1818 102.134 59.0455 99.8608 60.7727C97.6108 62.5 95.9176 64.8182 94.7812 67.7273C93.6676 70.6364 93.1108 73.8636 93.1108 77.4091C93.1108 81.0455 93.679 84.2614 94.8153 87.0568C95.9744 89.8295 97.679 92.0114 99.929 93.6023C102.202 95.1705 105.02 95.9545 108.384 95.9545ZM154.065 72.5V104H146.02V34.1818H154.065V59.8182H154.747C155.974 57.1136 157.815 54.9659 160.27 53.375C162.747 51.7614 166.043 50.9545 170.156 50.9545C173.724 50.9545 176.849 51.6705 179.531 53.1023C182.213 54.5114 184.293 56.6818 185.77 59.6136C187.27 62.5227 188.02 66.2273 188.02 70.7273V104H179.974V71.2727C179.974 67.1136 178.895 63.8977 176.736 61.625C174.599 59.3295 171.634 58.1818 167.838 58.1818C165.202 58.1818 162.838 58.7386 160.747 59.8523C158.679 60.9659 157.043 62.5909 155.838 64.7273C154.656 66.8636 154.065 69.4545 154.065 72.5ZM225.511 51.6364V58.4545H198.375V51.6364H225.511ZM206.284 39.0909H214.33V89C214.33 91.2727 214.659 92.9773 215.318 94.1136C216 95.2273 216.864 95.9773 217.909 96.3636C218.977 96.7273 220.102 96.9091 221.284 96.9091C222.17 96.9091 222.898 96.8636 223.466 96.7727C224.034 96.6591 224.489 96.5682 224.83 96.5L226.466 103.727C225.92 103.932 225.159 104.136 224.182 104.341C223.205 104.568 221.966 104.682 220.466 104.682C218.193 104.682 215.966 104.193 213.784 103.216C211.625 102.239 209.83 100.75 208.398 98.75C206.989 96.75 206.284 94.2273 206.284 91.1818V39.0909ZM242.795 123.636C241.432 123.636 240.216 123.523 239.148 123.295C238.08 123.091 237.341 122.886 236.932 122.682L238.977 115.591C240.932 116.091 242.659 116.273 244.159 116.136C245.659 116 246.989 115.33 248.148 114.125C249.33 112.943 250.409 111.023 251.386 108.364L252.886 104.273L233.523 51.6364H242.25L256.705 93.3636H257.25L271.705 51.6364H280.432L258.205 111.636C257.205 114.341 255.966 116.58 254.489 118.352C253.011 120.148 251.295 121.477 249.341 122.341C247.409 123.205 245.227 123.636 242.795 123.636Z" fill="white"/>
<path d="M11.3182 197H2.45455L28.0909 127.182H36.8182L62.4545 197H53.5909L32.7273 138.227H32.1818L11.3182 197ZM14.5909 169.727H50.3182V177.227H14.5909V169.727ZM93.375 217.727C89.4886 217.727 86.1477 217.227 83.3523 216.227C80.5568 215.25 78.2273 213.955 76.3636 212.341C74.5227 210.75 73.0568 209.045 71.9659 207.227L78.375 202.727C79.1023 203.682 80.0227 204.773 81.1364 206C82.25 207.25 83.7727 208.33 85.7045 209.239C87.6591 210.17 90.2159 210.636 93.375 210.636C97.6023 210.636 101.091 209.614 103.841 207.568C106.591 205.523 107.966 202.318 107.966 197.955V187.318H107.284C106.693 188.273 105.852 189.455 104.761 190.864C103.693 192.25 102.148 193.489 100.125 194.58C98.125 195.648 95.4205 196.182 92.0114 196.182C87.7841 196.182 83.9886 195.182 80.625 193.182C77.2841 191.182 74.6364 188.273 72.6818 184.455C70.75 180.636 69.7841 176 69.7841 170.545C69.7841 165.182 70.7273 160.511 72.6136 156.534C74.5 152.534 77.125 149.443 80.4886 147.261C83.8523 145.057 87.7386 143.955 92.1477 143.955C95.5568 143.955 98.2614 144.523 100.261 145.659C102.284 146.773 103.83 148.045 104.898 149.477C105.989 150.886 106.83 152.045 107.42 152.955H108.239V144.636H116.011V198.5C116.011 203 114.989 206.659 112.943 209.477C110.92 212.318 108.193 214.398 104.761 215.716C101.352 217.057 97.5568 217.727 93.375 217.727ZM93.1023 188.955C96.3295 188.955 99.0568 188.216 101.284 186.739C103.511 185.261 105.205 183.136 106.364 180.364C107.523 177.591 108.102 174.273 108.102 170.409C108.102 166.636 107.534 163.307 106.398 160.42C105.261 157.534 103.58 155.273 101.352 153.636C99.125 152 96.375 151.182 93.1023 151.182C89.6932 151.182 86.8523 152.045 84.5795 153.773C82.3295 155.5 80.6364 157.818 79.5 160.727C78.3864 163.636 77.8295 166.864 77.8295 170.409C77.8295 174.045 78.3977 177.261 79.5341 180.057C80.6932 182.83 82.3977 185.011 84.6477 186.602C86.9205 188.17 89.7386 188.955 93.1023 188.955ZM152.693 198.091C147.648 198.091 143.295 196.977 139.636 194.75C136 192.5 133.193 189.364 131.216 185.341C129.261 181.295 128.284 176.591 128.284 171.227C128.284 165.864 129.261 161.136 131.216 157.045C133.193 152.932 135.943 149.727 139.466 147.432C143.011 145.114 147.148 143.955 151.875 143.955C154.602 143.955 157.295 144.409 159.955 145.318C162.614 146.227 165.034 147.705 167.216 149.75C169.398 151.773 171.136 154.455 172.432 157.795C173.727 161.136 174.375 165.25 174.375 170.136V173.545H134.011V166.591H166.193C166.193 163.636 165.602 161 164.42 158.682C163.261 156.364 161.602 154.534 159.443 153.193C157.307 151.852 154.784 151.182 151.875 151.182C148.67 151.182 145.898 151.977 143.557 153.568C141.239 155.136 139.455 157.182 138.205 159.705C136.955 162.227 136.33 164.932 136.33 167.818V172.455C136.33 176.409 137.011 179.761 138.375 182.511C139.761 185.239 141.682 187.318 144.136 188.75C146.591 190.159 149.443 190.864 152.693 190.864C154.807 190.864 156.716 190.568 158.42 189.977C160.148 189.364 161.636 188.455 162.886 187.25C164.136 186.023 165.102 184.5 165.784 182.682L173.557 184.864C172.739 187.5 171.364 189.818 169.432 191.818C167.5 193.795 165.114 195.341 162.273 196.455C159.432 197.545 156.239 198.091 152.693 198.091ZM194.659 165.5V197H186.614V144.636H194.386V152.818H195.068C196.295 150.159 198.159 148.023 200.659 146.409C203.159 144.773 206.386 143.955 210.341 143.955C213.886 143.955 216.989 144.682 219.648 146.136C222.307 147.568 224.375 149.75 225.852 152.682C227.33 155.591 228.068 159.273 228.068 163.727V197H220.023V164.273C220.023 160.159 218.955 156.955 216.818 154.659C214.682 152.341 211.75 151.182 208.023 151.182C205.455 151.182 203.159 151.739 201.136 152.852C199.136 153.966 197.557 155.591 196.398 157.727C195.239 159.864 194.659 162.455 194.659 165.5ZM264.043 198.091C259.134 198.091 254.906 196.932 251.361 194.614C247.815 192.295 245.088 189.102 243.179 185.034C241.27 180.966 240.315 176.318 240.315 171.091C240.315 165.773 241.293 161.08 243.247 157.011C245.224 152.92 247.974 149.727 251.497 147.432C255.043 145.114 259.179 143.955 263.906 143.955C267.588 143.955 270.906 144.636 273.861 146C276.815 147.364 279.236 149.273 281.122 151.727C283.009 154.182 284.179 157.045 284.634 160.318H276.588C275.974 157.932 274.611 155.818 272.497 153.977C270.406 152.114 267.588 151.182 264.043 151.182C260.906 151.182 258.156 152 255.793 153.636C253.452 155.25 251.622 157.534 250.304 160.489C249.009 163.42 248.361 166.864 248.361 170.818C248.361 174.864 248.997 178.386 250.27 181.386C251.565 184.386 253.384 186.716 255.724 188.375C258.088 190.034 260.861 190.864 264.043 190.864C266.134 190.864 268.031 190.5 269.736 189.773C271.44 189.045 272.884 188 274.065 186.636C275.247 185.273 276.088 183.636 276.588 181.727H284.634C284.179 184.818 283.054 187.602 281.259 190.08C279.486 192.534 277.134 194.489 274.202 195.943C271.293 197.375 267.906 198.091 264.043 198.091ZM301.577 216.636C300.213 216.636 298.997 216.523 297.929 216.295C296.861 216.091 296.122 215.886 295.713 215.682L297.759 208.591C299.713 209.091 301.44 209.273 302.94 209.136C304.44 209 305.77 208.33 306.929 207.125C308.111 205.943 309.19 204.023 310.168 201.364L311.668 197.273L292.304 144.636H301.031L315.486 186.364H316.031L330.486 144.636H339.213L316.986 204.636C315.986 207.341 314.747 209.58 313.27 211.352C311.793 213.148 310.077 214.477 308.122 215.341C306.19 216.205 304.009 216.636 301.577 216.636Z" fill="white"/>
<circle cx="362.5" cy="63.5" r="52.5" stroke="#03602B" stroke-width="22"/>
<path d="M362.727 87.6364C359.606 87.6364 356.848 87.0833 354.455 85.9773C352.076 84.8561 350.22 83.3182 348.886 81.3636C347.553 79.3939 346.894 77.1515 346.909 74.6364C346.894 72.6667 347.28 70.8485 348.068 69.1818C348.856 67.5 349.932 66.0985 351.295 64.9773C352.674 63.8409 354.212 63.1212 355.909 62.8182V62.5455C353.682 61.9697 351.909 60.7197 350.591 58.7955C349.273 56.8561 348.621 54.6515 348.636 52.1818C348.621 49.8182 349.22 47.7045 350.432 45.8409C351.644 43.9773 353.311 42.5076 355.432 41.4318C357.568 40.3561 360 39.8182 362.727 39.8182C365.424 39.8182 367.833 40.3561 369.955 41.4318C372.076 42.5076 373.742 43.9773 374.955 45.8409C376.182 47.7045 376.803 49.8182 376.818 52.1818C376.803 54.6515 376.129 56.8561 374.795 58.7955C373.477 60.7197 371.727 61.9697 369.545 62.5455V62.8182C371.227 63.1212 372.742 63.8409 374.091 64.9773C375.439 66.0985 376.515 67.5 377.318 69.1818C378.121 70.8485 378.53 72.6667 378.545 74.6364C378.53 77.1515 377.848 79.3939 376.5 81.3636C375.167 83.3182 373.311 84.8561 370.932 85.9773C368.568 87.0833 365.833 87.6364 362.727 87.6364ZM362.727 82.6364C364.833 82.6364 366.652 82.2955 368.182 81.6136C369.712 80.9318 370.894 79.9697 371.727 78.7273C372.561 77.4848 372.985 76.0303 373 74.3636C372.985 72.6061 372.53 71.053 371.636 69.7045C370.742 68.3561 369.523 67.2955 367.977 66.5227C366.447 65.75 364.697 65.3636 362.727 65.3636C360.742 65.3636 358.97 65.75 357.409 66.5227C355.864 67.2955 354.644 68.3561 353.75 69.7045C352.871 71.053 352.439 72.6061 352.455 74.3636C352.439 76.0303 352.841 77.4848 353.659 78.7273C354.492 79.9697 355.682 80.9318 357.227 81.6136C358.773 82.2955 360.606 82.6364 362.727 82.6364ZM362.727 60.5455C364.394 60.5455 365.871 60.2121 367.159 59.5455C368.462 58.8788 369.485 57.947 370.227 56.75C370.97 55.553 371.348 54.1515 371.364 52.5455C371.348 50.9697 370.977 49.5985 370.25 48.4318C369.523 47.25 368.515 46.3409 367.227 45.7045C365.939 45.053 364.439 44.7273 362.727 44.7273C360.985 44.7273 359.462 45.053 358.159 45.7045C356.856 46.3409 355.848 47.25 355.136 48.4318C354.424 49.5985 354.076 50.9697 354.091 52.5455C354.076 54.1515 354.432 55.553 355.159 56.75C355.902 57.947 356.924 58.8788 358.227 59.5455C359.53 60.2121 361.03 60.5455 362.727 60.5455Z" fill="#03602B"/>
</svg>
